<svg width="112" height="36" viewBox="0 0 112 36" fill="none" xmlns="http://www.w3.org/2000/svg">
<path d="M3.91403 7.46397C2.7914 7.46397 1.85082 7.11505 1.09229 6.41719C0.364096 5.689 0 4.79393 0 3.73199C0 2.67004 0.364096 1.79014 1.09229 1.09229C1.85082 0.364096 2.7914 0 3.91403 0C5.03666 0 5.96207 0.364096 6.69027 1.09229C7.4488 1.79014 7.82807 2.67004 7.82807 3.73199C7.82807 4.79393 7.4488 5.689 6.69027 6.41719C5.96207 7.11505 5.03666 7.46397 3.91403 7.46397ZM7.05436 10.4678V35.6814H0.68268V10.4678H7.05436Z" fill="white"/>
<path d="M32.9653 3.91403V9.05689H19.7213V17.2035H29.8705V22.2554H19.7213V35.6814H13.3496V3.91403H32.9653Z" fill="white"/>
<path d="M43.8551 14.3818C44.6743 13.0468 45.7362 12 47.0409 11.2415C48.3759 10.4829 49.893 10.1037 51.5921 10.1037V16.7939H49.9082C47.9057 16.7939 46.3886 17.2642 45.357 18.2048C44.3557 19.1454 43.8551 20.7838 43.8551 23.1201V35.6814H37.4834V10.4678H43.8551V14.3818Z" fill="white"/>
<path d="M79.6865 10.4678V35.6814H73.2693V32.4956C72.4501 33.5879 71.373 34.4526 70.038 35.0898C68.7333 35.6966 67.3073 36 65.7599 36C63.7877 36 62.0431 35.5904 60.526 34.7712C59.0089 33.9216 57.8104 32.6928 56.9305 31.0847C56.081 29.4463 55.6562 27.5044 55.6562 25.2592V10.4678H62.0279V24.3489C62.0279 26.3515 62.5285 27.8989 63.5298 28.9912C64.531 30.0531 65.8964 30.5841 67.6259 30.5841C69.3857 30.5841 70.7662 30.0531 71.7675 28.9912C72.7687 27.8989 73.2693 26.3515 73.2693 24.3489V10.4678H79.6865Z" fill="white"/>
<path d="M89.2046 7.46397C88.082 7.46397 87.1414 7.11505 86.3829 6.41719C85.6547 5.689 85.2906 4.79393 85.2906 3.73199C85.2906 2.67004 85.6547 1.79014 86.3829 1.09229C87.1414 0.364096 88.082 0 89.2046 0C90.3272 0 91.2526 0.364096 91.9808 1.09229C92.7394 1.79014 93.1186 2.67004 93.1186 3.73199C93.1186 4.79393 92.7394 5.689 91.9808 6.41719C91.2526 7.11505 90.3272 7.46397 89.2046 7.46397ZM92.3449 10.4678V35.6814H85.9732V10.4678H92.3449Z" fill="white"/>
<path d="M106.059 15.7016V27.8989C106.059 28.7484 106.256 29.3704 106.65 29.7649C107.075 30.129 107.773 30.311 108.744 30.311H111.702V35.6814H107.697C102.327 35.6814 99.6414 33.0721 99.6414 27.8533V15.7016H96.6376V10.4678H99.6414V4.23262H106.059V10.4678H111.702V15.7016H106.059Z" fill="white"/>
</svg>
