<svg width="26" height="26" viewBox="0 0 26 26" fill="none" xmlns="http://www.w3.org/2000/svg">
<path d="M2.7085 22.75C2.27516 22.75 1.896 22.5875 1.571 22.2625C1.246 21.9375 1.0835 21.5583 1.0835 21.125V4.875C1.0835 4.44167 1.246 4.0625 1.571 3.7375C1.896 3.4125 2.27516 3.25 2.7085 3.25H23.2918C23.7252 3.25 24.1043 3.4125 24.4293 3.7375C24.7543 4.0625 24.9168 4.44167 24.9168 4.875V21.125C24.9168 21.5583 24.7543 21.9375 24.4293 22.2625C24.1043 22.5875 23.7252 22.75 23.2918 22.75H2.7085ZM2.7085 21.125H23.2918V4.875H2.7085V21.125ZM20.5835 12.1333H17.3335V13.7583H18.9856V16.7917H14.896V9.20833H20.5835C20.5293 8.775 20.3537 8.39583 20.0567 8.07083C19.7597 7.74583 19.4027 7.58333 18.9856 7.58333H14.896C14.4491 7.58333 14.0666 7.74245 13.7483 8.06068C13.4301 8.37891 13.271 8.76146 13.271 9.20833V16.7917C13.271 17.2385 13.4301 17.6211 13.7483 17.9393C14.0666 18.2576 14.4491 18.4167 14.896 18.4167H18.9856C19.437 18.4167 19.8161 18.2576 20.1231 17.9393C20.43 17.6211 20.5835 17.2385 20.5835 16.7917V12.1333ZM5.41683 18.4167H10.2918C10.7387 18.4167 11.1213 18.2576 11.4395 17.9393C11.7577 17.6211 11.9168 17.2385 11.9168 16.7917V13.8125C11.9168 13.3656 11.7577 12.9831 11.4395 12.6648C11.1213 12.3466 10.7387 12.1875 10.2918 12.1875H7.04183V9.20833H11.9168V7.58333H5.41683V13.8125H10.2918V16.7917H5.41683V18.4167Z" fill="#FA00FF"/>
</svg>
