<svg width="28" height="33" viewBox="0 0 28 33" fill="none" xmlns="http://www.w3.org/2000/svg">
<path d="M20.5626 28.6L13.0376 19.6625C12.5904 19.8458 12.1432 19.9948 11.696 20.1094C11.2487 20.224 10.7918 20.2812 10.3251 20.2812C8.43741 20.2812 6.83283 19.5059 5.51141 17.9552C4.19 16.4045 3.5293 14.5215 3.5293 12.3062C3.5293 11.5958 3.60861 10.9039 3.76724 10.2304C3.92587 9.55691 4.14794 8.91969 4.43346 8.31875L8.66263 13.3031L11.346 10.3469L7.00013 5.225C7.50403 4.87763 8.03834 4.60745 8.60304 4.41447C9.16777 4.22149 9.7418 4.125 10.3251 4.125C12.2534 4.125 13.8924 4.9204 15.2421 6.51121C16.5919 8.10199 17.2668 10.0337 17.2668 12.3062C17.2668 12.8562 17.2182 13.3948 17.121 13.9219C17.0237 14.449 16.8974 14.976 16.7418 15.5031L24.296 24.3719C24.5099 24.623 24.6168 24.9264 24.6168 25.2821C24.6168 25.6378 24.5099 25.9417 24.296 26.1937L22.0793 28.6C21.8713 28.8521 21.62 28.9781 21.3254 28.9781C21.0308 28.9781 20.7765 28.8521 20.5626 28.6ZM21.3793 26.6406L22.546 25.2656L14.5835 15.8812C14.8946 15.4 15.1279 14.8328 15.2835 14.1797C15.439 13.5266 15.5168 12.9021 15.5168 12.3062C15.5168 10.5875 14.9772 9.13229 13.898 7.94062C12.8189 6.74896 11.589 6.14167 10.2085 6.11875L13.1543 9.65937C13.3293 9.86562 13.4168 10.1177 13.4168 10.4156C13.4168 10.7135 13.3293 10.9656 13.1543 11.1719L9.3043 15.4344C9.1293 15.6406 8.91541 15.7437 8.66263 15.7437C8.40985 15.7437 8.19596 15.6406 8.02096 15.4344L5.1918 12.1344C5.25013 13.899 5.78162 15.3542 6.78628 16.5C7.79094 17.6458 8.97055 18.2187 10.3251 18.2187C10.8112 18.2187 11.3265 18.1271 11.871 17.9437C12.4154 17.7604 12.8918 17.4854 13.3001 17.1187L21.3793 26.6406Z" fill="#FA00FF"/>
</svg>
